<mxfile host="app.diagrams.net" agent="Mozilla/5.0 (Windows NT 10.0; Win64; x64) AppleWebKit/537.36 (KHTML, like Gecko) Chrome/139.0.0.0 Safari/537.36 Edg/139.0.0.0" version="28.1.1">
  <diagram id="prtHgNgQTEPvFCAcTncT" name="Page-1">
    <mxGraphModel dx="1668" dy="1021" grid="1" gridSize="10" guides="1" tooltips="1" connect="1" arrows="1" fold="1" page="1" pageScale="1" pageWidth="827" pageHeight="1169" math="0" shadow="0">
      <root>
        <mxCell id="0" />
        <mxCell id="1" parent="0" />
        <mxCell id="dNxyNK7c78bLwvsdeMH5-19" value="Processo retencao" style="swimlane;html=1;childLayout=stackLayout;resizeParent=1;resizeParentMax=0;horizontal=0;startSize=20;horizontalStack=0;" parent="1" vertex="1">
          <mxGeometry x="20" y="125" width="2090" height="760" as="geometry" />
        </mxCell>
        <mxCell id="dNxyNK7c78bLwvsdeMH5-27" value="" style="edgeStyle=orthogonalEdgeStyle;rounded=0;orthogonalLoop=1;jettySize=auto;html=1;dashed=1;endArrow=none;endFill=0;" parent="dNxyNK7c78bLwvsdeMH5-19" source="dNxyNK7c78bLwvsdeMH5-24" target="dNxyNK7c78bLwvsdeMH5-26" edge="1">
          <mxGeometry relative="1" as="geometry">
            <Array as="points">
              <mxPoint x="180" y="185" />
              <mxPoint x="180" y="185" />
            </Array>
          </mxGeometry>
        </mxCell>
        <mxCell id="K_VchCGm_uXAoo02_naL-1" value="13 em 13 minutos" style="edgeLabel;html=1;align=center;verticalAlign=middle;resizable=0;points=[];" parent="dNxyNK7c78bLwvsdeMH5-27" vertex="1" connectable="0">
          <mxGeometry x="0.16" y="-2" relative="1" as="geometry">
            <mxPoint x="2" y="5" as="offset" />
          </mxGeometry>
        </mxCell>
        <mxCell id="dNxyNK7c78bLwvsdeMH5-20" value="WF Credito/Smart IZI" style="swimlane;html=1;startSize=20;horizontal=0;" parent="dNxyNK7c78bLwvsdeMH5-19" vertex="1">
          <mxGeometry x="20" width="2070" height="140" as="geometry" />
        </mxCell>
        <mxCell id="dNxyNK7c78bLwvsdeMH5-25" value="" style="edgeStyle=orthogonalEdgeStyle;rounded=0;orthogonalLoop=1;jettySize=auto;html=1;" parent="dNxyNK7c78bLwvsdeMH5-20" source="dNxyNK7c78bLwvsdeMH5-23" target="dNxyNK7c78bLwvsdeMH5-24" edge="1">
          <mxGeometry relative="1" as="geometry" />
        </mxCell>
        <mxCell id="dNxyNK7c78bLwvsdeMH5-23" value="" style="ellipse;whiteSpace=wrap;html=1;" parent="dNxyNK7c78bLwvsdeMH5-20" vertex="1">
          <mxGeometry x="40" y="35" width="40" height="40" as="geometry" />
        </mxCell>
        <mxCell id="dNxyNK7c78bLwvsdeMH5-24" value="Regista pedido de retenção na view&amp;nbsp;&lt;span data-teams=&quot;true&quot;&gt;vw_CEDSIF_Propostas_Por_Decidir&lt;/span&gt;" style="rounded=0;whiteSpace=wrap;html=1;fontFamily=Helvetica;fontSize=12;fontColor=#000000;align=center;" parent="dNxyNK7c78bLwvsdeMH5-20" vertex="1">
          <mxGeometry x="120" y="20" width="240" height="70" as="geometry" />
        </mxCell>
        <mxCell id="dNxyNK7c78bLwvsdeMH5-21" value="Job SQL" style="swimlane;html=1;startSize=20;horizontal=0;" parent="dNxyNK7c78bLwvsdeMH5-19" vertex="1">
          <mxGeometry x="20" y="140" width="2070" height="170" as="geometry" />
        </mxCell>
        <mxCell id="C1m27JKeYHq3ZGguCctL-3" style="edgeStyle=orthogonalEdgeStyle;rounded=0;orthogonalLoop=1;jettySize=auto;html=1;entryX=0;entryY=0.5;entryDx=0;entryDy=0;" edge="1" parent="dNxyNK7c78bLwvsdeMH5-21" source="dNxyNK7c78bLwvsdeMH5-26" target="C1m27JKeYHq3ZGguCctL-1">
          <mxGeometry relative="1" as="geometry" />
        </mxCell>
        <mxCell id="dNxyNK7c78bLwvsdeMH5-26" value="Copia para fila de processamento da consola&amp;nbsp;" style="rounded=0;whiteSpace=wrap;html=1;fontFamily=Helvetica;fontSize=12;fontColor=#000000;align=center;" parent="dNxyNK7c78bLwvsdeMH5-21" vertex="1">
          <mxGeometry x="100" y="60" width="110" height="70" as="geometry" />
        </mxCell>
        <mxCell id="C1m27JKeYHq3ZGguCctL-1" value="Para cada Business Code &lt;br&gt;Consulta estado no Cedsif" style="shape=ext;double=1;rounded=0;whiteSpace=wrap;html=1;" vertex="1" parent="dNxyNK7c78bLwvsdeMH5-21">
          <mxGeometry x="280" y="55" width="120" height="80" as="geometry" />
        </mxCell>
        <mxCell id="K_VchCGm_uXAoo02_naL-3" value="" style="endArrow=none;dashed=1;html=1;dashPattern=1 3;strokeWidth=2;rounded=0;entryX=0.5;entryY=1;entryDx=0;entryDy=0;exitX=0.5;exitY=0;exitDx=0;exitDy=0;" parent="dNxyNK7c78bLwvsdeMH5-19" source="dNxyNK7c78bLwvsdeMH5-34" target="C1m27JKeYHq3ZGguCctL-1" edge="1">
          <mxGeometry width="50" height="50" relative="1" as="geometry">
            <mxPoint x="360" y="405" as="sourcePoint" />
            <mxPoint x="410" y="355" as="targetPoint" />
          </mxGeometry>
        </mxCell>
        <mxCell id="K_VchCGm_uXAoo02_naL-4" value="20 em 20 minutos" style="edgeLabel;html=1;align=center;verticalAlign=middle;resizable=0;points=[];" parent="K_VchCGm_uXAoo02_naL-3" vertex="1" connectable="0">
          <mxGeometry x="-0.3829" y="2" relative="1" as="geometry">
            <mxPoint x="7" as="offset" />
          </mxGeometry>
        </mxCell>
        <mxCell id="dNxyNK7c78bLwvsdeMH5-22" value="Consola Cedsif" style="swimlane;html=1;startSize=20;horizontal=0;" parent="dNxyNK7c78bLwvsdeMH5-19" vertex="1">
          <mxGeometry x="20" y="310" width="2070" height="450" as="geometry" />
        </mxCell>
        <mxCell id="dNxyNK7c78bLwvsdeMH5-34" value="Lê o o backlog de pedidos de retenção&amp;nbsp;" style="rounded=0;whiteSpace=wrap;html=1;fontFamily=Helvetica;fontSize=12;fontColor=#000000;align=center;" parent="dNxyNK7c78bLwvsdeMH5-22" vertex="1">
          <mxGeometry x="285" y="61.67" width="110" height="60" as="geometry" />
        </mxCell>
        <mxCell id="dNxyNK7c78bLwvsdeMH5-37" value="" style="edgeStyle=orthogonalEdgeStyle;rounded=0;orthogonalLoop=1;jettySize=auto;html=1;endArrow=classic;endFill=1;" parent="dNxyNK7c78bLwvsdeMH5-22" source="dNxyNK7c78bLwvsdeMH5-34" edge="1">
          <mxGeometry relative="1" as="geometry">
            <mxPoint x="550" y="91.67" as="targetPoint" />
          </mxGeometry>
        </mxCell>
        <mxCell id="K_VchCGm_uXAoo02_naL-9" style="edgeStyle=orthogonalEdgeStyle;rounded=0;orthogonalLoop=1;jettySize=auto;html=1;entryX=0;entryY=0.5;entryDx=0;entryDy=0;" parent="dNxyNK7c78bLwvsdeMH5-22" source="K_VchCGm_uXAoo02_naL-7" target="K_VchCGm_uXAoo02_naL-8" edge="1">
          <mxGeometry relative="1" as="geometry" />
        </mxCell>
        <mxCell id="K_VchCGm_uXAoo02_naL-7" value="&lt;font style=&quot;font-size: 11px;&quot;&gt;Backlog de pedidos de &lt;br&gt;retenção&lt;/font&gt;" style="strokeWidth=2;html=1;shape=mxgraph.flowchart.multi-document;whiteSpace=wrap;" parent="dNxyNK7c78bLwvsdeMH5-22" vertex="1">
          <mxGeometry x="470" y="47.17" width="160" height="75" as="geometry" />
        </mxCell>
        <mxCell id="K_VchCGm_uXAoo02_naL-11" style="edgeStyle=orthogonalEdgeStyle;rounded=0;orthogonalLoop=1;jettySize=auto;html=1;entryX=0;entryY=0.5;entryDx=0;entryDy=0;" parent="dNxyNK7c78bLwvsdeMH5-22" source="K_VchCGm_uXAoo02_naL-8" target="K_VchCGm_uXAoo02_naL-10" edge="1">
          <mxGeometry relative="1" as="geometry" />
        </mxCell>
        <mxCell id="K_VchCGm_uXAoo02_naL-8" value="Para cada pedido é invocado o WS&lt;br&gt;/XXXXX/" style="rounded=0;whiteSpace=wrap;html=1;" parent="dNxyNK7c78bLwvsdeMH5-22" vertex="1">
          <mxGeometry x="830" y="54.17" width="120" height="60" as="geometry" />
        </mxCell>
        <mxCell id="K_VchCGm_uXAoo02_naL-13" value="" style="edgeStyle=orthogonalEdgeStyle;rounded=0;orthogonalLoop=1;jettySize=auto;html=1;" parent="dNxyNK7c78bLwvsdeMH5-22" source="K_VchCGm_uXAoo02_naL-10" target="K_VchCGm_uXAoo02_naL-12" edge="1">
          <mxGeometry relative="1" as="geometry" />
        </mxCell>
        <mxCell id="K_VchCGm_uXAoo02_naL-42" value="" style="edgeStyle=orthogonalEdgeStyle;rounded=0;orthogonalLoop=1;jettySize=auto;html=1;" parent="dNxyNK7c78bLwvsdeMH5-22" source="K_VchCGm_uXAoo02_naL-10" target="K_VchCGm_uXAoo02_naL-41" edge="1">
          <mxGeometry relative="1" as="geometry" />
        </mxCell>
        <mxCell id="K_VchCGm_uXAoo02_naL-10" value="OK?" style="rhombus;whiteSpace=wrap;html=1;" parent="dNxyNK7c78bLwvsdeMH5-22" vertex="1">
          <mxGeometry x="990" y="37.17" width="80" height="80" as="geometry" />
        </mxCell>
        <mxCell id="K_VchCGm_uXAoo02_naL-12" value="Guarda o Business Code para consulta de resposta" style="whiteSpace=wrap;html=1;" parent="dNxyNK7c78bLwvsdeMH5-22" vertex="1">
          <mxGeometry x="1130" y="47.17" width="120" height="60" as="geometry" />
        </mxCell>
        <mxCell id="K_VchCGm_uXAoo02_naL-41" value="????" style="whiteSpace=wrap;html=1;" parent="dNxyNK7c78bLwvsdeMH5-22" vertex="1">
          <mxGeometry x="970" y="187.5" width="120" height="60" as="geometry" />
        </mxCell>
        <mxCell id="K_VchCGm_uXAoo02_naL-44" style="edgeStyle=orthogonalEdgeStyle;rounded=0;orthogonalLoop=1;jettySize=auto;html=1;entryX=0.5;entryY=0;entryDx=0;entryDy=0;entryPerimeter=0;exitX=1;exitY=0.5;exitDx=0;exitDy=0;" parent="dNxyNK7c78bLwvsdeMH5-22" source="K_VchCGm_uXAoo02_naL-12" target="K_VchCGm_uXAoo02_naL-43" edge="1">
          <mxGeometry relative="1" as="geometry" />
        </mxCell>
        <mxCell id="K_VchCGm_uXAoo02_naL-57" value="Não" style="text;html=1;align=center;verticalAlign=middle;resizable=0;points=[];autosize=1;strokeColor=none;fillColor=none;" parent="dNxyNK7c78bLwvsdeMH5-22" vertex="1">
          <mxGeometry x="1020" y="117.17000000000002" width="50" height="30" as="geometry" />
        </mxCell>
        <mxCell id="K_VchCGm_uXAoo02_naL-58" value="Sim" style="text;html=1;align=center;verticalAlign=middle;resizable=0;points=[];autosize=1;strokeColor=none;fillColor=none;" parent="dNxyNK7c78bLwvsdeMH5-22" vertex="1">
          <mxGeometry x="1075" y="54.17" width="40" height="30" as="geometry" />
        </mxCell>
        <mxCell id="C1m27JKeYHq3ZGguCctL-8" value="&lt;div style=&quot;box-sizing: border-box; width: 100%; background: rgb(228, 228, 228); padding: 2px;&quot;&gt;&lt;span style=&quot;font-size: 11px; text-align: center; background-color: rgb(236, 236, 236);&quot;&gt;tbl_propostas_enviadas_cedsif&lt;/span&gt;&lt;/div&gt;" style="verticalAlign=top;align=left;overflow=fill;html=1;whiteSpace=wrap;" vertex="1" parent="dNxyNK7c78bLwvsdeMH5-22">
          <mxGeometry x="810" y="275" width="180" height="25" as="geometry" />
        </mxCell>
        <mxCell id="C1m27JKeYHq3ZGguCctL-11" value="&lt;div style=&quot;box-sizing: border-box; width: 100%; background: rgb(228, 228, 228); padding: 2px;&quot;&gt;&lt;span style=&quot;font-size: 11px; text-align: center; background-color: rgb(236, 236, 236);&quot;&gt;tbl_propostas_enviadas_cedsif&lt;/span&gt;&lt;/div&gt;" style="verticalAlign=top;align=left;overflow=fill;html=1;whiteSpace=wrap;" vertex="1" parent="dNxyNK7c78bLwvsdeMH5-22">
          <mxGeometry x="645" y="150" width="180" height="25" as="geometry" />
        </mxCell>
        <mxCell id="K_VchCGm_uXAoo02_naL-43" value="Backlog de pedidos de &lt;br&gt;consulta&amp;nbsp;" style="strokeWidth=2;html=1;shape=mxgraph.flowchart.multi-document;whiteSpace=wrap;align=left;" parent="dNxyNK7c78bLwvsdeMH5-22" vertex="1">
          <mxGeometry x="1510" y="310" width="150" height="90" as="geometry" />
        </mxCell>
        <mxCell id="K_VchCGm_uXAoo02_naL-46" value="" style="endArrow=none;dashed=1;html=1;dashPattern=1 3;strokeWidth=2;rounded=0;entryX=0.01;entryY=0.615;entryDx=0;entryDy=0;entryPerimeter=0;" parent="dNxyNK7c78bLwvsdeMH5-22" source="K_VchCGm_uXAoo02_naL-50" target="K_VchCGm_uXAoo02_naL-43" edge="1">
          <mxGeometry width="50" height="50" relative="1" as="geometry">
            <mxPoint x="1340" y="362.5" as="sourcePoint" />
            <mxPoint x="1320" y="-7.5" as="targetPoint" />
          </mxGeometry>
        </mxCell>
        <mxCell id="K_VchCGm_uXAoo02_naL-48" value="Text" style="edgeLabel;html=1;align=center;verticalAlign=middle;resizable=0;points=[];" parent="K_VchCGm_uXAoo02_naL-46" vertex="1" connectable="0">
          <mxGeometry x="0.0071" y="-5" relative="1" as="geometry">
            <mxPoint as="offset" />
          </mxGeometry>
        </mxCell>
        <mxCell id="K_VchCGm_uXAoo02_naL-49" value="20 em 20 minutos" style="edgeLabel;html=1;align=center;verticalAlign=middle;resizable=0;points=[];" parent="K_VchCGm_uXAoo02_naL-46" vertex="1" connectable="0">
          <mxGeometry x="0.0207" y="-6" relative="1" as="geometry">
            <mxPoint as="offset" />
          </mxGeometry>
        </mxCell>
        <mxCell id="K_VchCGm_uXAoo02_naL-52" style="edgeStyle=orthogonalEdgeStyle;rounded=0;orthogonalLoop=1;jettySize=auto;html=1;entryX=1;entryY=0.5;entryDx=0;entryDy=0;" parent="dNxyNK7c78bLwvsdeMH5-22" source="K_VchCGm_uXAoo02_naL-50" target="K_VchCGm_uXAoo02_naL-51" edge="1">
          <mxGeometry relative="1" as="geometry" />
        </mxCell>
        <mxCell id="K_VchCGm_uXAoo02_naL-50" value="Para cada Business Code &lt;br&gt;Consulta estado no Cedsif" style="shape=ext;double=1;rounded=0;whiteSpace=wrap;html=1;" parent="dNxyNK7c78bLwvsdeMH5-22" vertex="1">
          <mxGeometry x="1270" y="330" width="120" height="80" as="geometry" />
        </mxCell>
        <mxCell id="K_VchCGm_uXAoo02_naL-54" style="edgeStyle=orthogonalEdgeStyle;rounded=0;orthogonalLoop=1;jettySize=auto;html=1;entryX=1;entryY=0.5;entryDx=0;entryDy=0;" parent="dNxyNK7c78bLwvsdeMH5-22" source="K_VchCGm_uXAoo02_naL-51" target="K_VchCGm_uXAoo02_naL-53" edge="1">
          <mxGeometry relative="1" as="geometry" />
        </mxCell>
        <mxCell id="K_VchCGm_uXAoo02_naL-51" value="OK?" style="rhombus;whiteSpace=wrap;html=1;" parent="dNxyNK7c78bLwvsdeMH5-22" vertex="1">
          <mxGeometry x="1040" y="346.25" width="50" height="47.5" as="geometry" />
        </mxCell>
        <mxCell id="K_VchCGm_uXAoo02_naL-53" value="Reporta retenção ao WF" style="rounded=0;whiteSpace=wrap;html=1;" parent="dNxyNK7c78bLwvsdeMH5-22" vertex="1">
          <mxGeometry x="835" y="346.25" width="120" height="47.5" as="geometry" />
        </mxCell>
        <mxCell id="K_VchCGm_uXAoo02_naL-56" value="Sim" style="text;html=1;align=center;verticalAlign=middle;resizable=0;points=[];autosize=1;strokeColor=none;fillColor=none;" parent="dNxyNK7c78bLwvsdeMH5-22" vertex="1">
          <mxGeometry x="990" y="370" width="40" height="30" as="geometry" />
        </mxCell>
        <mxCell id="C1m27JKeYHq3ZGguCctL-9" value="" style="endArrow=classic;html=1;rounded=0;exitX=0.5;exitY=0;exitDx=0;exitDy=0;entryX=0.444;entryY=1.14;entryDx=0;entryDy=0;entryPerimeter=0;" edge="1" parent="dNxyNK7c78bLwvsdeMH5-22" source="K_VchCGm_uXAoo02_naL-53">
          <mxGeometry relative="1" as="geometry">
            <mxPoint x="1070" y="150" as="sourcePoint" />
            <mxPoint x="893.9200000000001" y="298.4999999999998" as="targetPoint" />
          </mxGeometry>
        </mxCell>
        <mxCell id="C1m27JKeYHq3ZGguCctL-10" value="UPDATE TABLE" style="edgeLabel;resizable=0;html=1;;align=center;verticalAlign=middle;" connectable="0" vertex="1" parent="C1m27JKeYHq3ZGguCctL-9">
          <mxGeometry relative="1" as="geometry" />
        </mxCell>
        <mxCell id="C1m27JKeYHq3ZGguCctL-27" style="edgeStyle=orthogonalEdgeStyle;rounded=0;orthogonalLoop=1;jettySize=auto;html=1;entryX=1;entryY=0.5;entryDx=0;entryDy=0;" edge="1" parent="dNxyNK7c78bLwvsdeMH5-22" source="C1m27JKeYHq3ZGguCctL-24" target="C1m27JKeYHq3ZGguCctL-26">
          <mxGeometry relative="1" as="geometry" />
        </mxCell>
        <mxCell id="C1m27JKeYHq3ZGguCctL-24" value="code==200" style="rhombus;whiteSpace=wrap;html=1;" vertex="1" parent="dNxyNK7c78bLwvsdeMH5-22">
          <mxGeometry x="505" y="327.5" width="90" height="85" as="geometry" />
        </mxCell>
        <mxCell id="C1m27JKeYHq3ZGguCctL-25" style="edgeStyle=orthogonalEdgeStyle;rounded=0;orthogonalLoop=1;jettySize=auto;html=1;entryX=1;entryY=0.5;entryDx=0;entryDy=0;" edge="1" parent="dNxyNK7c78bLwvsdeMH5-22" source="K_VchCGm_uXAoo02_naL-53" target="C1m27JKeYHq3ZGguCctL-24">
          <mxGeometry relative="1" as="geometry" />
        </mxCell>
        <mxCell id="C1m27JKeYHq3ZGguCctL-26" value="Processo de desembolso" style="shape=process;whiteSpace=wrap;html=1;backgroundOutline=1;" vertex="1" parent="dNxyNK7c78bLwvsdeMH5-22">
          <mxGeometry x="210" y="340" width="120" height="60" as="geometry" />
        </mxCell>
        <mxCell id="C1m27JKeYHq3ZGguCctL-28" value="Processo de desembolso" style="shape=process;whiteSpace=wrap;html=1;backgroundOutline=1;" vertex="1" parent="dNxyNK7c78bLwvsdeMH5-22">
          <mxGeometry x="500" y="205" width="120" height="60" as="geometry" />
        </mxCell>
        <mxCell id="C1m27JKeYHq3ZGguCctL-29" style="edgeStyle=orthogonalEdgeStyle;rounded=0;orthogonalLoop=1;jettySize=auto;html=1;entryX=0.417;entryY=1;entryDx=0;entryDy=0;entryPerimeter=0;" edge="1" parent="dNxyNK7c78bLwvsdeMH5-22" source="C1m27JKeYHq3ZGguCctL-24" target="C1m27JKeYHq3ZGguCctL-28">
          <mxGeometry relative="1" as="geometry" />
        </mxCell>
        <mxCell id="C1m27JKeYHq3ZGguCctL-31" value="Não" style="text;html=1;align=center;verticalAlign=middle;resizable=0;points=[];autosize=1;strokeColor=none;fillColor=none;" vertex="1" parent="dNxyNK7c78bLwvsdeMH5-22">
          <mxGeometry x="545" y="290" width="50" height="30" as="geometry" />
        </mxCell>
        <mxCell id="C1m27JKeYHq3ZGguCctL-30" value="Sim" style="text;html=1;align=center;verticalAlign=middle;resizable=0;points=[];autosize=1;strokeColor=none;fillColor=none;" vertex="1" parent="dNxyNK7c78bLwvsdeMH5-22">
          <mxGeometry x="440" y="340" width="40" height="30" as="geometry" />
        </mxCell>
        <mxCell id="C1m27JKeYHq3ZGguCctL-14" value="" style="endArrow=classic;html=1;rounded=0;entryX=0.411;entryY=0.04;entryDx=0;entryDy=0;entryPerimeter=0;" edge="1" parent="1" target="C1m27JKeYHq3ZGguCctL-11">
          <mxGeometry relative="1" as="geometry">
            <mxPoint x="760" y="520" as="sourcePoint" />
            <mxPoint x="770" y="550" as="targetPoint" />
          </mxGeometry>
        </mxCell>
        <mxCell id="C1m27JKeYHq3ZGguCctL-15" value="INSERT TABLE" style="edgeLabel;resizable=0;html=1;;align=center;verticalAlign=middle;" connectable="0" vertex="1" parent="C1m27JKeYHq3ZGguCctL-14">
          <mxGeometry relative="1" as="geometry" />
        </mxCell>
      </root>
    </mxGraphModel>
  </diagram>
</mxfile>
